<?xml version="1.0" encoding="utf-8"?>
<!-- Generator: Adobe Illustrator 24.3.0, SVG Export Plug-In . SVG Version: 6.00 Build 0)  -->
<svg version="1.1" id="Layer_1" xmlns="http://www.w3.org/2000/svg" xmlns:xlink="http://www.w3.org/1999/xlink" x="0px" y="0px"
	 viewBox="0 0 409 150" style="enable-background:new 0 0 409 150;" xml:space="preserve">
<style type="text/css">
	.st0{fill:#FF2B0C;}
	.st1{fill:#FFFFFF;}
</style>
<g>
	<path class="st0" d="M116.8,23c0.2,0,0.4,0,0.6,0c7.9,0,15.7,0,23.6,0c3.8,0,7.4,0.9,10.7,2.8c3.8,2.3,6.3,5.7,7.8,9.8
		c1.6,4.4,2,8.9,1.6,13.5c-0.2,2.7-0.7,5.4-1.8,7.9c-2.4,5.9-6.7,9.5-12.7,11.2c-2.7,0.8-5.5,1.1-8.3,1.1c-6.8,0-13.6,0-20.4,0
		c-0.3,0-0.6,0-0.9,0C116.6,68.5,116.6,24.1,116.8,23z M131,34.9c0,7.5,0,15,0,22.5c0.2,0,0.3,0.1,0.4,0.1c2.2,0,4.4,0.1,6.5,0
		c4.1-0.3,6.9-2.4,8.2-6.2c0.9-2.8,1.1-5.6,0.5-8.4c-1-4.4-3.6-7-8.1-7.8c-2.3-0.4-4.7-0.3-7.1-0.3C131.3,34.7,131.1,34.8,131,34.9z
		"/>
	<path class="st0" d="M114.1,40.6c0,3.7,0,7.2,0,11c-2.8,0.1-5.5,0-8.2,0c-2.7,0-5.5,0-8.2,0c-2.7,0-5.5,0-8.3,0c0,2,0,3.9,0,5.9
		c8.2,0,16.5,0,24.7,0c0.3,0.9,0.3,10.9,0,11.8c-12.9,0-25.9,0-38.8,0c-0.2-0.8-0.3-43.9-0.1-46.2c0.8-0.2,36.1-0.3,38.9-0.1
		c0.2,0.7,0.3,10.6,0,11.8c-8.2,0-16.4,0-24.7,0c0,2,0,3.9,0,5.9C97.6,40.6,105.8,40.6,114.1,40.6z"/>
	<path d="M274.9,69.2c-2.1,0-4,0-6.1,0c-4.3-12.6-8.6-25.3-12.9-38c-0.3,2.5-0.2,5-0.2,7.5c0,2.5,0,5.1,0.1,7.6c0,2.5,0,5.1,0,7.6
		s0,5.1,0,7.6c0,2.5,0,5.1,0,7.7c-2,0-3.9,0-5.8,0c0-15.2,0-30.4,0-45.7c2.9,0,5.8,0,8.8,0c4.3,12.8,8.7,25.6,13,38.4
		c2.4-6.3,4.5-12.7,6.7-19.1c2.2-6.4,4.3-12.8,6.5-19.2c0.8-0.2,6.7-0.3,8.6-0.1c0.2,0.7,0.3,44.2,0.1,45.7c-1.9,0-3.8,0-5.8,0
		c0-12.7-0.1-25.3,0.1-38c-0.9,2-1.5,4.1-2.3,6.2c-0.7,2.1-1.4,4.2-2.1,6.3c-0.7,2.1-1.4,4.3-2.2,6.4c-0.7,2.1-1.4,4.3-2.2,6.4
		c-0.7,2.1-1.4,4.2-2.1,6.3C276.4,64.9,275.6,67.1,274.9,69.2z"/>
	<path class="st0" d="M59.5,69.3c-4.8,0-9.4,0-14.2,0c0-1.3,0-2.5,0-3.8c0-1.3,0-2.5,0-3.8c0-1.3,0-2.6,0-3.9c0-1.3,0-2.5,0-3.8
		c0-1.3,0-2.5,0-3.8s0-2.5,0-3.8c0-1.3,0-2.6,0-3.9c0-1.3,0-2.5,0-3.8c0-1.3,0-2.5,0-3.9c-0.5,0-0.9-0.1-1.3-0.1
		c-3.5,0-6.9,0-10.4,0c-0.4,0-0.8,0-1.2,0c-0.2-0.8-0.3-9.7-0.1-11.6c0.8-0.2,37.5-0.3,40.1-0.1c0.2,0.7,0.3,9.5,0.1,11.7
		c-0.4,0-0.8,0.1-1.2,0.1c-3.5,0-6.9,0-10.4,0c-0.4,0-0.8,0-1.3,0c0,0.6-0.1,1.1-0.1,1.6c0,10.5,0,21,0,31.5
		C59.5,68.2,59.5,68.7,59.5,69.3z"/>
	<path d="M303.7,23.5c2,0,4,0,6.2,0c0,0.5,0,0.9,0,1.3c0,8.8,0,17.7,0,26.5c0,2,0.2,4.1,0.8,6c0.5,1.6,1.2,3,2.3,4.3
		c1.7,2.1,4,3,6.6,3.3c2.1,0.2,4.2,0.1,6.2-0.5c4.1-1.1,6.5-3.9,7.3-8c0.3-1.6,0.4-3.2,0.4-4.8c0-8.9,0-17.8,0-26.7
		c0-0.4,0-0.8,0-1.3c2.1,0,4.1,0,6.2,0c0,0.3,0.1,0.6,0.1,0.9c0,8.3,0,16.7,0,25c0,3.1-0.2,6.1-1,9.1c-1.6,6.1-5.4,9.9-11.5,11.3
		c-3.9,0.9-7.8,0.8-11.6-0.1c-6.1-1.5-9.6-5.5-11.1-11.5c-0.6-2.7-0.9-5.5-0.9-8.3c0-8.5,0-17,0-25.4
		C303.6,24.1,303.7,23.8,303.7,23.5z"/>
	<path d="M241.6,37.1c-2,0-3.9,0-5.9,0c-0.1-0.3-0.2-0.5-0.3-0.8c-1.6-5.4-5.1-8.2-10.7-8.6c-2.1-0.1-4.1-0.1-6.1,0.6
		c-4.3,1.4-7.2,4.3-8.8,8.5c-0.8,2-1.2,4.1-1.4,6.3c-0.3,3.5-0.3,7,0.5,10.5c0.5,2.1,1.4,4.1,2.6,6c1.8,2.7,4.3,4.4,7.5,5.1
		c2.2,0.5,4.5,0.6,6.7,0.2c3.3-0.6,5.9-2.4,7.7-5.3c1.1-1.8,1.8-3.7,2.3-5.7c0.1-0.4,0.2-0.7,0.3-1.2c2-0.1,3.9-0.1,6.1,0
		c-0.2,1.2-0.4,2.3-0.7,3.4c-1.7,6.2-5.3,10.8-11.4,13.2c-3.5,1.4-7.1,1.6-10.8,1.2c-5.4-0.7-9.7-3.2-12.9-7.5
		c-1.9-2.5-3-5.4-3.6-8.5c-1.1-5.4-1.2-10.8,0.1-16.2c0.9-3.7,2.6-7,5.2-9.8c2.7-3,6.1-4.8,10.1-5.6c4.2-0.8,8.4-0.8,12.5,0.7
		c6.2,2.2,9.8,6.8,11,13.3C241.7,36.7,241.6,36.9,241.6,37.1z"/>
	<path class="st0" d="M172.7,36.8c-3.2-4.6-6.3-9.2-9.5-13.9c3.5,0,6.9,0,10.4,0c1.2,2.2,2.5,4.4,3.9,6.8c0.3-0.4,0.5-0.7,0.7-1
		c1-1.7,2-3.5,3-5.2c0.2-0.4,0.4-0.7,0.9-0.7c3.1,0,6.3,0,9.4,0c0.1,0,0.1,0,0.3,0.1c-3.1,4.6-6.3,9.2-9.5,13.8
		c3.3,4.8,6.5,9.5,9.8,14.4c-0.3,0.1-0.6,0.2-0.8,0.2c-2.9,0-5.8,0-8.8,0c-0.6,0-0.9-0.2-1.2-0.7c-1-1.7-2.1-3.4-3.1-5.2
		c-0.2-0.4-0.5-0.8-0.8-1.3c-0.3,0.4-0.5,0.7-0.7,1c-1.1,1.8-2.2,3.6-3.2,5.5c-0.3,0.5-0.6,0.7-1.2,0.7c-3,0-5.9,0-8.9,0
		c-0.2,0-0.3,0-0.7-0.1C166.1,46.4,169.4,41.7,172.7,36.8z"/>
	<path d="M151.5,118.5c1-4.3,2-8.5,3-12.9c1.7,0,3.3,0,5.1,0c0,5.7,0,11.3,0,17c-1.1,0-2.1,0-3.2,0c0-4.5,0-8.9,0-13.4
		c-0.1,0-0.1,0-0.2,0c-1,4.5-2,8.9-3,13.4c-1.1,0-2.3,0-3.5,0c-1-4.5-2-8.9-3-13.4c-0.1,0-0.1,0-0.2,0c0,4.4,0,8.9,0,13.4
		c-1.1,0-2.1,0-3.1,0c-0.2-0.8-0.3-15.9,0-17c1.6,0,3.3,0,5,0c1,4.3,2,8.6,3,12.9C151.4,118.5,151.5,118.5,151.5,118.5z"/>
	<path d="M101.6,124c1.2,0,2.3,0,3.4,0c0.9,1.2,2.7,1.6,4,0.8c0.5-0.3,0.9-0.8,1-1.3c0.1-0.7,0.2-1.5,0.3-2.4
		c-0.2,0.1-0.3,0.1-0.4,0.1c-2.1,2.1-5.4,2-7.2-0.3c-0.3-0.4-0.6-0.7-0.7-1.2c-1-2.7-1-5.3,0.5-7.8c1.1-1.9,3.3-2.7,5.5-2.2
		c0.9,0.2,1.6,0.9,2.3,1.7c0-0.6,0.1-0.9,0.1-1.4c1,0,2,0,3.1,0c0,0.4,0.1,0.7,0.1,1c0,3.6,0,7.2,0,10.9c0,0.8-0.1,1.5-0.2,2.3
		c-0.3,1.4-1.1,2.5-2.4,3c-2.3,0.9-4.6,1-6.9,0C102.5,126.6,101.7,125.6,101.6,124z M104.5,116.3c0.2,0.7,0.3,1.5,0.5,2.2
		c0.4,1,1.1,1.5,2.2,1.5c1.1,0,2-0.4,2.4-1.4c0.8-1.6,0.8-3.3-0.1-5c-0.5-1-1.4-1.3-2.5-1.3c-1,0.1-1.7,0.6-2.1,1.5
		C104.8,114.7,104.7,115.5,104.5,116.3z"/>
	<path d="M225.1,105.6c1.1,0,2.3,0,3.5,0c0,0.4,0.1,0.7,0.1,1.1c0,3,0,5.9,0,8.9c0,0.7,0,1.3,0.1,2c0.2,1.5,1.1,2.3,2.6,2.4
		c0.4,0,0.7,0,1.1,0c1.4-0.1,2.2-0.8,2.5-2.1c0.1-0.6,0.2-1.2,0.2-1.8c0-3.1,0-6.1,0-9.2c0-0.4,0-0.8,0-1.1c0.8-0.3,2.2-0.3,3.5-0.1
		c0,0.3,0.1,0.5,0.1,0.8c0,3.4,0,6.8,0,10.1c0,0.5,0,1-0.1,1.5c-0.4,2.7-1.9,4.3-4.6,4.8c-1.5,0.3-3.1,0.3-4.6-0.1
		c-2.5-0.6-3.9-2.2-4.2-4.7c-0.1-0.6-0.2-1.3-0.2-1.9c0-3.3,0-6.7,0-10C225.1,106,225.1,105.9,225.1,105.6z"/>
	<path d="M49.2,111.2c-1.1,0-2.2,0-3.4,0c-0.1-0.2-0.2-0.4-0.3-0.7c-0.9-2.7-5-2.8-6.3-0.9c-0.4,0.5-0.7,1.1-0.9,1.7
		c-0.6,1.9-0.7,3.9-0.1,5.8c0.6,2,2.2,3.1,4.2,3c1.3-0.1,2.2-0.7,2.8-1.8c0.2-0.4,0.4-0.9,0.6-1.4c1.1,0,2.2,0,3.5,0
		c-0.4,2.2-1.3,3.9-3,5.1c-3.9,2.7-9.7,0.9-11.3-3.6c-1-2.8-1-5.6,0.1-8.4c1-2.6,2.9-4.2,5.7-4.6c1.6-0.2,3.2-0.1,4.7,0.5
		c2.2,0.9,3.5,2.5,3.9,4.9C49.2,110.8,49.2,111,49.2,111.2z"/>
	<path d="M310.5,95c0-4.7,0-9.2,0-13.9c0.3,0,0.6-0.1,0.9-0.1c1.7,0,3.5,0,5.2,0c3.5,0,5.7,2,6.2,5.5c0.2,1.4,0.1,2.7-0.3,4.1
		c-0.7,2.5-2.4,4.1-5,4.3C315.2,95.2,312.9,95,310.5,95z M313.6,92.5c1.1,0,2.2,0.1,3.2,0c1.4-0.1,2.4-1,2.8-2.4
		c0.4-1.4,0.3-2.7-0.1-4c-0.4-1.1-1.1-1.8-2.3-2.1c-1.2-0.3-2.4-0.1-3.6-0.1C313.6,86.7,313.6,89.5,313.6,92.5z"/>
	<path d="M54.4,113.9c-1.1,0-2.1,0-3,0c0-1.8,0.9-3.2,2.4-3.8c2.2-0.8,4.4-0.7,6.5,0.3c0.9,0.4,1.4,1.1,1.6,2.1
		c0.1,0.5,0.1,1,0.1,1.6c0,2.1,0,4.2,0,6.2c0,1.2,0,1.2,0.7,2.2c-1.2,0.2-2.3,0-3.5,0.1c-0.1-0.5-0.3-0.9-0.4-1.3
		c-0.3,0.3-0.6,0.5-0.9,0.7c-1.3,1-2.7,1.2-4.2,0.9c-1.5-0.3-2.6-1.6-2.7-3.1c-0.2-1.9,0.5-3.5,2.2-4.1c1.1-0.4,2.3-0.5,3.5-0.8
		c0.5-0.1,1-0.2,1.4-0.3c0.5-0.2,0.8-0.5,0.7-1c0-0.6-0.3-1-0.8-1.1c-0.8-0.1-1.6-0.1-2.4,0C54.8,112.6,54.6,113.3,54.4,113.9z
		 M58.6,116.6c-1,0.2-1.9,0.4-2.9,0.7c-0.3,0.1-0.7,0.2-1,0.4c-0.6,0.4-0.7,1.1-0.6,1.8c0.1,0.7,0.5,1,1.1,1.1
		c1.4,0.4,3.1-0.6,3.3-2.1C58.7,117.9,58.6,117.3,58.6,116.6z"/>
	<path d="M287.5,117.3c-3,0-5.9,0-8.8,0c0,1.6,0.6,2.5,1.8,3c1.4,0.5,2.5,0.2,3.7-1.3c0.9,0,1.8,0,2.7,0c0.1,0,0.3,0,0.4,0.1
		c0,0.7-0.3,1.2-0.7,1.6c-1.3,1.9-3.3,2.5-5.4,2.4c-0.5,0-0.9-0.1-1.4-0.2c-2.4-0.7-4-2.1-4.4-4.7c-0.2-1.5-0.2-3.1,0.3-4.6
		c0.7-2.1,2.1-3.3,4.3-3.8c1.1-0.2,2.2-0.2,3.3,0.1c1.9,0.5,3.1,1.8,3.8,3.7C287.5,114.7,287.6,115.9,287.5,117.3z M284.1,115
		c-0.4-1.9-1.5-2.8-3.1-2.6c-1.3,0.1-2.2,1.2-2.2,2.6C280.6,115,282.3,115,284.1,115z"/>
	<path d="M134.2,117.3c-3,0-5.9,0-8.8,0c0,1.7,0.6,2.6,1.9,3c1.2,0.4,2.5,0.3,3.5-1.3c1,0,2.1,0,3.2,0c0,0.7-0.3,1.2-0.7,1.7
		c-1.3,1.9-3.3,2.5-5.5,2.4c-0.5,0-0.9-0.1-1.4-0.2c-2.4-0.7-4-2.1-4.4-4.7c-0.2-1.5-0.2-3,0.3-4.5c0.7-2.1,2.1-3.4,4.3-3.9
		c1.1-0.2,2.2-0.2,3.3,0.1c1.9,0.5,3.1,1.8,3.7,3.6C134.3,114.7,134.4,115.9,134.2,117.3z M130.8,115c-0.2-1.8-1.2-2.7-2.9-2.6
		c-1.4,0.1-2.3,1.2-2.3,2.6C127.3,115,129.1,115,130.8,115z"/>
	<path d="M173.9,117.3c-1.6,0-3,0-4.4,0c-1.4,0-2.9,0-4.3,0c-0.2,1.3,0.4,2.4,1.5,2.9c1.2,0.6,2.7,0.4,3.4-0.6
		c0.4-0.5,0.8-0.7,1.4-0.6c0.7,0,1.5,0,2.2,0c0.2,0.6-0.2,1.1-0.5,1.5c-1.3,2-3.3,2.7-5.6,2.6c-0.9-0.1-1.8-0.3-2.6-0.7
		c-1.9-0.8-2.9-2.4-3.2-4.4c-0.2-1.3-0.2-2.7,0.2-4c0.6-2.3,2.1-3.8,4.5-4.2c4-0.7,7.2,1.6,7.4,5.7
		C173.9,116.1,173.9,116.6,173.9,117.3z M165.2,115c1.8,0,3.5,0,5.3,0c-0.1-1.6-1-2.5-2.5-2.6C166.3,112.4,165.3,113.3,165.2,115z"
		/>
	<path d="M99.9,119c-0.3,0.7-0.5,1.2-0.8,1.7c-1.3,1.9-3.2,2.5-5.4,2.4c-0.9-0.1-1.9-0.3-2.7-0.7c-1.9-0.8-2.8-2.3-3.1-4.3
		c-0.2-1.4-0.2-2.7,0.2-4.1c0.7-2.3,2.1-3.7,4.5-4.1c4-0.7,7.2,1.6,7.4,5.8c0,0.5,0,1,0,1.6c-3,0-5.9,0-8.8,0
		c-0.1,2.3,1.6,3.5,3.6,3.1c0.6-0.1,1.1-0.4,1.5-0.9c0.3-0.4,0.6-0.5,1.1-0.5C98,119,98.8,119,99.9,119z M96.5,115.1
		c-0.1-1.7-1.1-2.6-2.7-2.6c-1.5,0-2.5,0.9-2.6,2.6c0.1,0,0.3,0.1,0.4,0.1C93.2,115.1,94.8,115.1,96.5,115.1z"/>
	<path d="M188.4,116.3c0.1-0.6,0.1-1.3,0.3-1.9c0.6-2.7,2.4-4.3,5.1-4.7c1.1-0.2,2.2-0.1,3.3,0.2c1.7,0.5,2.8,1.6,3.5,3.1
		c1,2.1,1,4.3,0,6.4c-1.2,2.8-3.3,3.5-6,3.5c-0.6,0-1.1-0.1-1.7-0.2c-2.5-0.6-4.2-2.7-4.5-5.6C188.4,117,188.5,116.7,188.4,116.3
		C188.4,116.3,188.4,116.3,188.4,116.3z M191.7,116.4c0.2,0.8,0.3,1.5,0.5,2.2c0.4,1.2,1.4,1.7,2.6,1.7c1.2,0,2.2-0.6,2.6-1.7
		c0.6-1.5,0.6-3,0-4.4c-0.4-1.2-1.3-1.8-2.6-1.8c-1.3,0-2.2,0.6-2.7,1.8C192,114.9,191.9,115.6,191.7,116.4z"/>
	<path d="M306.2,114c-0.7-1.5-2.1-2.1-3.6-1.5c-0.4,0.2-0.8,0.5-0.8,1c0,0.5,0.3,0.8,0.8,0.9c1,0.3,2,0.5,3.1,0.8
		c0.7,0.2,1.4,0.4,2,0.7c2.2,1.1,2.7,3.9,1,5.7c-0.5,0.5-1.2,1-1.9,1.2c-1.8,0.6-3.7,0.5-5.5,0c-1.7-0.5-3.1-2.1-3-4.1
		c0.5,0,1.1,0,1.6,0c0.5,0,1,0,1.6,0c0.2,0.8,0.4,1.5,1.3,1.7c1,0.3,2.1,0.3,3.1-0.1c0.4-0.2,0.7-0.5,0.5-0.9
		c-0.1-0.3-0.4-0.7-0.7-0.8c-0.7-0.3-1.5-0.5-2.3-0.7c-0.9-0.2-1.8-0.4-2.6-0.8c-2.1-0.8-2.8-3-1.7-4.9c0.6-1.1,1.5-1.7,2.7-2.1
		c1.6-0.4,3.2-0.4,4.8,0.2c1.7,0.6,2.5,1.7,2.7,3.8C308.2,114.1,307.2,114,306.2,114z"/>
	<path d="M325.4,110.1c1.2,0,2.3,0,3.5,0c0.9,2.9,1.8,5.9,2.7,8.9c1.1-2.9,1.8-5.9,2.7-8.9c1.1,0,2.2,0,3.4,0
		c-0.1,0.3-0.1,0.6-0.2,0.8c-1.5,4.3-3,8.6-4.5,12.9c-0.3,0.9-0.7,1.7-1.1,2.6c-0.3,0.7-0.9,1.2-1.7,1.3c-1,0.1-1.9,0.2-3,0.3
		c0-1,0-1.8,0-2.6c0.3,0,0.5-0.1,0.8-0.1c1.6-0.2,2.3-1.2,1.7-2.7c-0.9-2.6-1.8-5.2-2.7-7.8c-0.5-1.3-0.9-2.7-1.4-4
		C325.5,110.5,325.5,110.3,325.4,110.1z"/>
	<path d="M301.6,89.1c0,1.2,0,2.2,0,3.4c2.5,0,4.9,0,7.4,0c0,0.9,0,1.7,0,2.6c-3.5,0-7,0-10.5,0c0-4.6,0-9.2,0-13.9
		c3.4,0,6.8,0,10.3,0c0,0.8,0,1.6,0,2.5c-2.4,0-4.8,0-7.2,0c0,1,0,1.9,0,3c2.2,0,4.4,0,6.6,0c0,0.9,0,1.6,0,2.5
		C306.1,89.1,303.9,89.1,301.6,89.1z"/>
	<path d="M203.7,122.6c0-4.2,0-8.3,0-12.5c1,0,2,0,3.1,0c0,0.5,0.1,0.9,0.1,1.5c0.2-0.2,0.4-0.4,0.5-0.5c1.6-2,5.2-1.6,6.6-0.2
		c0.8,0.8,1.1,1.9,1.1,3c0,2.2,0,4.4,0,6.7c0,0.7,0,1.3,0,2.1c-1.1,0-2.2,0-3.4,0c0-0.5,0-0.8,0-1.2c0-2.2,0-4.4,0-6.7
		c0-1.4-0.6-2.1-1.7-2.3c-1.3-0.2-2.4,0.4-2.8,1.7c-0.2,0.5-0.2,1.1-0.2,1.7c0,1.9,0,3.8,0,5.7c0,0.3,0,0.7,0,1.1
		C205.9,122.6,204.9,122.6,203.7,122.6z"/>
	<path d="M245.3,122.6c-1.1,0-2.1,0-3.2,0c0-4.2,0-8.3,0-12.5c1,0,2,0,3,0c0,0.5,0.1,0.9,0.1,1.5c0.2-0.2,0.4-0.4,0.5-0.5
		c1.5-2,5-1.7,6.5-0.3c0.8,0.8,1.1,1.8,1.2,2.9c0.1,3,0,5.9,0,8.9c-1.1,0-2.2,0-3.4,0c0-0.4,0-0.7,0-1.1c0-2,0-3.9,0-5.9
		c0-0.4,0-0.7,0-1.1c-0.1-1.2-0.6-1.9-1.5-2.1c-1.2-0.3-2.4,0.2-2.8,1.3c-0.3,0.6-0.4,1.4-0.4,2c-0.1,1.9,0,3.8,0,5.7
		C245.3,121.8,245.3,122.2,245.3,122.6z"/>
	<path d="M85.6,122.6c-1.1,0-2.2,0-3.3,0c0-0.4,0-0.8,0-1.1c0-2,0-3.9,0-5.9c0-0.4,0-0.7,0-1.1c-0.1-1.2-0.6-1.9-1.6-2.1
		c-1.2-0.2-2.3,0.2-2.8,1.2c-0.3,0.7-0.4,1.4-0.4,2.1c-0.1,1.9,0,3.8,0,5.7c0,0.3,0,0.7,0,1.1c-1.1,0-2.1,0-3.2,0
		c0-4.2,0-8.3,0-12.6c0.5,0,1,0,1.5,0c0.5,0,1,0,1.6,0c0.1,0.5,0.1,1,0.2,1.6c0.2-0.2,0.3-0.3,0.4-0.5c1.5-2,4.8-1.7,6.3-0.5
		c0.9,0.7,1.3,1.7,1.3,2.8C85.7,116.4,85.6,119.5,85.6,122.6z"/>
	<path d="M218.8,85.8c0-0.3,0.1-0.5,0.1-0.8c0.8,0,1.6,0,2.5,0c0,0.3,0.1,0.5,0.1,0.8c0,2.8,0,5.6,0,8.4c0,0.5-0.1,0.9-0.1,1.4
		c-0.2,1.3-1,2.3-2.2,2.8c-1.7,0.7-3.5,0.8-5.2,0.1c-0.8-0.3-1.5-0.8-1.9-1.6c-0.1-0.3-0.2-0.7-0.3-1.1c1,0,1.8,0,2.6,0
		c0.9,1.2,2,1.6,3.1,1.1c1.1-0.4,1.4-1.5,1.2-3.4c-0.7,0.7-1.5,1.1-2.4,1.3c-2.2,0.3-3.9-0.8-4.6-2.9c-0.5-1.5-0.5-3,0.1-4.4
		c0.8-2,2.5-3.2,5-2.7C217.6,84.9,218.1,85.5,218.8,85.8z M219,89.8c-0.1-0.5-0.2-1.1-0.4-1.6c-0.3-0.9-1.1-1.4-2-1.4
		c-0.9,0-1.6,0.4-2,1.3c-0.5,1.2-0.4,2.3,0.1,3.5c0.4,0.9,1.3,1.3,2.3,1.1C218.2,92.4,218.9,91.3,219,89.8z"/>
	<path d="M277.1,86c0-1.7,0-3.2,0-4.8c0.9,0,1.8,0,2.7,0C280,81.9,280,93,279.8,95c-0.8,0-1.6,0-2.5,0c0-0.2-0.1-0.5-0.1-0.8
		c-0.1,0-0.2,0-0.2,0c-2.4,2-5.7,1.2-6.9-1.6c-0.6-1.6-0.7-3.2-0.2-4.8C270.8,84.7,274.4,83.6,277.1,86z M272.3,90
		c0.1,0.6,0.2,1.3,0.5,1.9c0.4,1,1.2,1.4,2.3,1.3c1-0.1,1.6-0.7,1.9-1.6c0.3-1,0.3-2.1,0-3.1c-0.3-1-1-1.6-2.1-1.7
		c-1.1,0-1.9,0.5-2.3,1.5C272.5,88.8,272.4,89.3,272.3,90z"/>
	<path d="M140.8,81.1c1,0,1.8,0,2.7,0c0,4.6,0,9.2,0,13.9c-0.8,0-1.6,0-2.5,0c0-0.3-0.1-0.5-0.1-0.9c-0.1,0.1-0.2,0.1-0.3,0.1
		c-2.1,1.8-5.2,1.3-6.5-1.1c-1.1-2-1.2-4.2-0.1-6.3c1.2-2.3,4.1-3,6.2-1.4c0.1,0.1,0.3,0.2,0.6,0.4c0-0.9,0-1.7,0-2.5
		C140.8,82.7,140.8,82,140.8,81.1z M140.9,90c-0.1-0.6-0.2-1.2-0.4-1.8c-0.3-0.9-1-1.4-2-1.4c-1,0-1.7,0.4-2.1,1.3
		c-0.5,1.3-0.5,2.5,0,3.8c0.4,1,1.2,1.4,2.3,1.3c0.9-0.1,1.6-0.6,1.9-1.6C140.8,91.1,140.8,90.6,140.9,90z"/>
	<path d="M87.4,95.1c-0.9,0-1.6,0-2.5,0c-0.1-0.3-0.1-0.6-0.2-0.9c-0.1,0-0.2,0.1-0.3,0.1c-2.3,1.9-5.5,1.3-6.7-1.4
		c-0.8-1.8-0.9-3.7-0.1-5.5c1.2-2.7,4.2-3.5,6.6-1.7c0.1,0.1,0.2,0.1,0.4,0.3c0-1.6,0-3.1,0-4.7c1,0,1.8,0,2.8,0
		C87.4,85.8,87.4,90.4,87.4,95.1z M79.8,90c0.2,0.6,0.3,1.4,0.6,2.1c0.4,0.9,1.2,1.2,2.2,1.1c0.9-0.1,1.5-0.6,1.8-1.4
		c0.4-1.1,0.4-2.3,0-3.4c-0.3-1-1-1.5-2-1.6c-1.1,0-1.8,0.4-2.2,1.4C80.1,88.8,80,89.3,79.8,90z"/>
	<path d="M102.6,85c0,0.3,0.1,0.6,0.1,0.8c0.1,0,0.2,0,0.2,0c2.5-2.1,5.9-1.2,7,1.8c0.6,1.8,0.6,3.6-0.2,5.3
		c-1.2,2.5-4.2,3.1-6.4,1.4c-0.1-0.1-0.2-0.2-0.5-0.4c0,1.6,0,3.1,0,4.6c-0.9,0-1.8,0-2.6,0c-0.2-0.7-0.3-11.9-0.1-13.6
		C100.9,85,101.7,85,102.6,85z M107.6,89.9c-0.1-0.6-0.3-1.2-0.5-1.8c-0.4-0.9-1.1-1.3-2.1-1.3c-0.9,0-1.6,0.5-1.9,1.4
		c-0.4,1.1-0.4,2.3-0.1,3.4c0.3,1.1,1.1,1.6,2.2,1.6c1.1,0,1.8-0.5,2.2-1.7C107.4,91.1,107.5,90.5,107.6,89.9z"/>
	<path d="M262,110.1c1.3,0,2.4,0,3.7,0c0.8,3,1.7,5.9,2.5,8.9c1.1-2.9,1.9-5.9,2.8-8.9c1.1,0,2.2,0,3.5,0c-1.5,4.2-3,8.4-4.5,12.5
		c-1.2,0-2.3,0-3.5,0C265,118.5,263.5,114.3,262,110.1z"/>
	<path d="M232.3,95c-0.8,0-1.7,0-2.6,0c-0.1-0.2-0.2-0.5-0.3-0.8c-1.2,0.9-2.6,1.2-4,1c-2-0.2-3.1-1.8-2.7-3.7
		c0.2-0.9,0.8-1.6,1.6-1.9c0.7-0.2,1.4-0.3,2.1-0.5c0.7-0.1,1.4-0.2,2.1-0.4c0.6-0.2,0.8-0.5,0.8-1.1c0-0.6-0.3-0.9-0.9-1.1
		c-1.3-0.4-2.2,0-2.9,1.4c-0.8,0-1.7,0-2.6,0c0-0.3,0-0.6,0.1-0.8c0.3-1,0.9-1.7,1.8-2c1.8-0.7,3.7-0.7,5.6-0.1
		c1.2,0.4,1.7,1.3,1.7,2.5c0,1.5,0,3.1,0,4.6C232.1,93.2,232.2,94.1,232.3,95z M229.3,90.3c-0.4,0.1-0.7,0.2-1,0.2
		c-0.3,0.1-0.7,0.1-1,0.2c-0.4,0.1-0.8,0.2-1.2,0.4c-0.5,0.3-0.7,0.8-0.6,1.4c0.1,0.6,0.5,0.8,1,0.9c1.8,0.3,2.8-0.5,2.8-2.3
		C229.3,90.9,229.3,90.6,229.3,90.3z"/>
	<path d="M324.4,120.3c0,0.9,0,1.6,0,2.3c-1.2,0.3-2.3,0.3-3.4,0.1c-1-0.2-1.7-0.8-1.8-1.9c0-0.3-0.1-0.7-0.1-1.1c0-2,0-4.1,0-6.1
		c0-0.3,0-0.7,0-1.1c-0.6,0-1.1-0.1-1.7-0.1c0-0.7,0-1.4,0-2.2c0.5,0,1-0.1,1.6-0.1c0-1.1,0-2.3,0-3.5c1.2,0,2.2,0,3.3,0
		c0,1.2,0,2.3,0,3.5c0.7,0,1.3,0,1.9,0c0,0.8,0,1.5,0,2.3c-0.6,0-1.1,0-1.8,0c0,0.4-0.1,0.6-0.1,0.9c0,1.9,0,3.8,0,5.7
		c0,1.2,0.1,1.2,1.3,1.3C323.9,120.2,324.1,120.3,324.4,120.3z"/>
	<path d="M268.6,90.7c-2.4,0-4.7,0-7.1,0c0,1.4,0.5,2.1,1.4,2.4c1.2,0.4,2.3,0,3.3-1.1c0.7,0,1.4,0,2.3,0c-0.4,1.2-1,2.2-2.1,2.8
		c-3.3,1.9-7.4-0.2-7.8-4c-0.3-2.8,1.2-5.2,3.7-5.9C266,83.8,269.3,86.8,268.6,90.7z M265.8,88.9c-0.1-1.5-0.9-2.2-2.2-2.1
		c-1.3,0.1-2,0.9-1.9,2.1C263,88.9,264.3,88.9,265.8,88.9z"/>
	<path d="M98.7,90.6c-2.4,0-4.7,0-7.1,0c0,1.3,0.4,2.1,1.3,2.4c1.2,0.4,2.3,0.1,3.3-1.1c0.7,0,1.5,0,2.2,0c-0.3,1.7-1.7,3.1-3.5,3.3
		c-0.7,0.1-1.5,0.1-2.2,0c-1.8-0.3-3.1-1.3-3.7-3.1c-0.4-1.1-0.5-2.3-0.2-3.4c0.5-2.6,2.8-4.6,6.3-4c0.9,0.2,1.6,0.6,2.3,1.3
		C98.4,87.2,98.9,88.9,98.7,90.6z M91.5,88.9c0.8,0,1.5,0,2.2,0c0.7,0,1.4,0,2.2,0c-0.1-1.4-0.7-2.1-1.9-2.1
		C92.6,86.7,91.8,87.4,91.5,88.9z"/>
	<path d="M338.7,91.9c-0.5,1.8-1.7,3-3.4,3.3c-0.8,0.2-1.8,0.2-2.6,0c-2.2-0.5-3.4-1.9-3.8-4.1c-0.5-2.7,0.8-5.4,3.3-6.2
		c3.2-1,6.3,0.4,6.7,4.5c0,0.3,0,0.7,0,1.2c-2.4,0-4.8,0-7.2,0c0,1.1,0.2,1.9,1.2,2.3c1,0.4,2.1,0.4,2.9-0.4
		c0.6-0.7,1.2-0.7,1.9-0.7C338,91.9,338.3,91.9,338.7,91.9z M336,88.9c-0.1-1.5-0.9-2.2-2.2-2.1c-1.3,0.1-2,0.9-1.9,2.1
		C333.2,88.9,334.5,88.9,336,88.9z"/>
	<path d="M358.7,90.7c-2.4,0-4.7,0-7.1,0c0,1.4,0.5,2.1,1.4,2.4c1.2,0.4,2.3,0,3.3-1.1c0.7,0,1.4,0,2.3,0c-0.4,1.5-1.3,2.6-2.8,3.1
		c-4.1,1.2-7.7-1.3-7.1-5.9c0.4-3.1,3.1-5,6.2-4.3c0.7,0.2,1.5,0.6,2,1C358.4,86.9,359,88.8,358.7,90.7z M351.6,88.9
		c1.5,0,2.8,0,4.2,0c0-1.3-0.7-2-1.9-2.1C352.6,86.7,351.8,87.4,351.6,88.9z"/>
	<path d="M121.2,90.7c-2.5,0-4.8,0-7.2,0c-0.1,1,0.2,1.8,1.1,2.3c0.9,0.5,2.3,0.4,3-0.3c0.6-0.7,1.2-0.7,1.9-0.7c0.3,0,0.6,0,1,0
		c-0.3,1.7-1.6,3-3.3,3.3c-0.9,0.1-1.8,0.1-2.6,0c-2.1-0.4-3.4-1.9-3.8-4.1c-0.5-2.7,0.9-5.3,3.2-6.1c3.2-1,6.3,0.4,6.8,4.5
		C121.2,89.8,121.2,90.2,121.2,90.7z M114,88.9c1.4,0,2.8,0,4.2,0c0-1.3-0.7-2-1.9-2.1C115,86.7,114.2,87.4,114,88.9z"/>
	<path d="M154.8,90.7c-2.4,0-4.8,0-7.1,0c-0.1,1.2,0.3,2,1.2,2.4c1.2,0.5,2.3,0.2,3.4-1.1c0.7,0,1.5,0,2.3,0
		c-0.5,1.5-1.4,2.6-2.9,3.1c-1.1,0.4-2.2,0.4-3.3,0.1c-2.4-0.6-3.8-2.6-3.7-5.4c0.1-2.2,1.1-4,3.2-4.8c3-1.1,6.2,0.2,6.8,4.1
		C154.9,89.6,154.8,90.1,154.8,90.7z M147.7,88.9c1.5,0,2.9,0.1,4.3,0c-0.3-1.6-1-2.2-2.4-2.1C148.4,86.9,147.8,87.6,147.7,88.9z"/>
	<path d="M182.7,91.6c0.7-2.2,1.4-4.4,2.1-6.6c1,0,1.9,0,2.8,0c-0.1,0.4-0.2,0.7-0.3,1.1c-1.2,3.3-2.4,6.5-3.6,9.8
		c-1,2.6-2.6,3.4-5.4,2.6c0-0.7,0-1.4,0-2.1c0.5,0,0.9,0,1.3,0c0.9,0,1.5-0.7,1.3-1.6c-0.1-0.3-0.2-0.5-0.3-0.8c-1-2.6-2-5.3-3-7.9
		c-0.1-0.3-0.2-0.6-0.4-1c1,0,1.9,0,3,0c0.7,2.2,1.5,4.4,2.2,6.6C182.6,91.6,182.7,91.6,182.7,91.6z"/>
	<path d="M293.1,95.1c-1.1,0-2,0-3.1,0c0-3.8,0-7.5,0-11.4c-1.4,0-2.8,0-4.1,0c0-0.9,0-1.6,0-2.4c0.7-0.2,10.2-0.3,11.4,0
		c0,0.7,0,1.5,0,2.4c-1.3,0-2.7,0-4.1,0C293.1,87.5,293.1,91.2,293.1,95.1z"/>
	<path d="M198.3,95.3c-3.2,0-5.2-2.1-5.2-5.3c0-3.3,2-5.3,5.2-5.4c3.3,0,5.3,2.1,5.3,5.3C203.5,93.3,201.5,95.3,198.3,95.3z
		 M200.8,90c-0.1-0.5-0.2-1.1-0.3-1.7c-0.3-1-1.1-1.5-2.2-1.5c-1,0-1.8,0.5-2.2,1.5c-0.4,1-0.4,2.1-0.1,3.1c0.3,1.2,1.1,1.8,2.2,1.8
		c1.2,0,2-0.5,2.3-1.7C200.7,91,200.7,90.5,200.8,90z"/>
	<path d="M69.2,95.1c-1,0-1.8,0-2.8,0c0-3.4,0-6.7,0-10.1c0.9,0,1.7,0,2.6,0c0,0.3,0.1,0.6,0.1,1c0.1-0.1,0.3-0.1,0.3-0.2
		c1.1-1.2,2.5-1.3,4-1.1c1.3,0.2,2.1,1.1,2.3,2.4c0.1,0.4,0.1,0.9,0.1,1.4c0,1.9,0,3.7,0,5.6c0,0.3,0,0.5,0,0.9c-0.9,0-1.7,0-2.6,0
		c0-0.3-0.1-0.5-0.1-0.8c0-1.5,0-3,0-4.5c0-0.4,0-0.8,0-1.2c-0.1-1.1-0.7-1.6-1.6-1.7c-1.1-0.1-1.9,0.4-2.1,1.5
		c-0.1,0.5-0.1,1-0.1,1.5c0,1.4,0,2.7,0,4.1C69.2,94.3,69.2,94.6,69.2,95.1z"/>
	<path d="M243.3,95.1c-0.9,0-1.8,0-2.7,0c0-0.3-0.1-0.6-0.1-0.9c0-1.5,0-3,0-4.4c0-0.4,0-0.8-0.1-1.3c-0.1-0.9-0.6-1.4-1.5-1.6
		c-1-0.1-1.8,0.3-2.1,1.2c-0.2,0.5-0.2,1.1-0.2,1.7c0,1.4,0,2.8,0,4.2c0,0.3,0,0.7,0,1.1c-1,0-1.8,0-2.7,0c0-3.3,0-6.6,0-10.1
		c0.4,0,0.8,0,1.2,0c0.4,0,0.8,0,1.3,0c0,0.4,0.1,0.7,0.1,1.1c0.2-0.2,0.4-0.3,0.6-0.4c1.2-1,3.1-1.3,4.6-0.6c0.8,0.4,1.3,1,1.5,1.8
		c0.1,0.5,0.2,1,0.2,1.6c0,2,0,4.1,0,6.1C243.4,94.7,243.3,94.8,243.3,95.1z"/>
	<path d="M156.2,95c0-3.4,0-6.6,0-10c0.9,0,1.7,0,2.6,0c0,0.3,0.1,0.7,0.1,1.2c1.1-1.4,2.5-1.7,4-1.5c1.4,0.2,2.2,0.9,2.6,2.3
		c0.1,0.4,0.2,0.8,0.2,1.2c0,2.1,0,4.2,0,6.3c0,0.1,0,0.3-0.1,0.5c-0.9,0-1.7,0-2.7,0c0-0.4,0-0.7,0-1.1c0-1.5,0-3,0-4.4
		c0-0.4,0-0.8-0.1-1.2c-0.2-1-0.8-1.5-1.7-1.5c-1,0-1.7,0.5-1.9,1.4c-0.1,0.6-0.2,1.3-0.2,1.9c0,1.6,0,3.2,0,4.8
		C158,95,157.1,95,156.2,95z"/>
	<path d="M369.5,95c-0.9,0-1.7,0-2.7,0c0-0.5,0-0.9,0-1.4c0-1.7,0-3.4-0.1-5.1c-0.1-1.2-0.6-1.7-1.6-1.7c-1.1-0.1-1.8,0.5-2.1,1.6
		c-0.1,0.6-0.2,1.2-0.2,1.8c0,1.6,0,3.2,0,4.8c-0.9,0-1.8,0-2.7,0c0-3.3,0-6.6,0-10c0.8,0,1.6,0,2.5,0c0,0.3,0.1,0.7,0.2,1.1
		c0.2-0.1,0.3-0.2,0.4-0.3c1.2-1.2,2.6-1.3,4.1-1c1.1,0.2,1.8,1,2.1,2c0.1,0.5,0.2,1,0.2,1.5c0,2.1,0,4.2,0,6.3
		C369.6,94.8,369.5,94.9,369.5,95z"/>
	<path d="M131.9,95c-0.9,0-1.8,0-2.7,0c0-1.6,0-3.2,0-4.8c0-0.6,0-1.2-0.1-1.8c-0.2-1.1-0.7-1.6-1.6-1.6c-1,0-1.8,0.4-2,1.5
		c-0.1,0.5-0.2,1-0.2,1.5c0,1.7,0,3.3,0,5c0,0.1,0,0.1-0.1,0.3c-0.8,0-1.7,0-2.6,0c0-3.3,0-6.6,0-10c0.8,0,1.6,0,2.5,0
		c0,0.3,0.1,0.7,0.1,1.1c0.2-0.1,0.3-0.2,0.4-0.3c1.2-1.2,2.7-1.3,4.2-0.9c1.1,0.3,1.7,1,2,2c0.1,0.5,0.2,1,0.2,1.5
		c0,2.1,0,4.2,0,6.2C132,94.7,131.9,94.8,131.9,95z"/>
	<path d="M253.7,87.1c-1.5,0-2.9,0-4.5,0c0-0.7,0-1.4,0-2.1c2.8,0,5.6,0,8.4,0c0.2,1.2,0.2,2.1-0.8,3.1c-1.2,1.2-2.3,2.6-3.5,3.8
		c-0.2,0.3-0.5,0.6-0.8,1c1.9,0,3.6,0,5.4,0c0,0.7,0,1.4,0,2.1c-3,0-6.1,0-9.1,0c-0.2-1.1-0.2-2,0.7-3c1.5-1.5,2.9-3.2,4.3-4.8
		C253.7,87.2,253.7,87.1,253.7,87.1z"/>
	<path d="M179.3,105.6c0,5.7,0,11.3,0,17c-1.1,0-2.1,0-3.1,0c-0.2-0.8-0.3-15.9,0-17C177.2,105.6,178.2,105.6,179.3,105.6z"/>
	<path d="M185.8,122.6c-1,0-2,0-3,0c-0.2-0.7-0.3-15.5-0.1-17c1,0,2,0,3,0C185.9,106.4,186,120.9,185.8,122.6z"/>
	<path d="M296.9,109.6c0,1.3,0,2.3,0,3.5c-0.4,0-0.8,0-1.2,0c-1.6,0.1-2.5,0.8-2.7,2.4c-0.1,0.5-0.1,1.1-0.1,1.6c0,1.8,0,3.7,0,5.6
		c-1.1,0-2.1,0-3.2,0c0-4.2,0-8.3,0-12.5c1,0,2,0,3,0c0,0.6,0.1,1.2,0.1,1.9c0.8-0.9,1.3-1.8,2.3-2.1
		C295.6,109.8,296.2,109.7,296.9,109.6z"/>
	<path d="M65,110.1c1,0,2,0,3,0c0,0.6,0.1,1.2,0.1,1.8c0.6-0.6,1.1-1.2,1.7-1.7c0.7-0.5,1.5-0.6,2.4-0.4c0,1.1,0,2.1,0,3.2
		c-0.4,0-0.7,0-1,0.1c-1.9,0.1-2.8,0.9-2.9,2.8c-0.1,1.9,0,3.7,0,5.6c0,0.4,0,0.8,0,1.2c-1.2,0-2.2,0-3.3,0
		C65,118.4,65,114.3,65,110.1z"/>
	<path d="M38.5,91.8C37.7,93,37,94,36.3,95c-0.9,0-1.8,0-2.9,0c1.2-1.8,2.4-3.5,3.6-5.3c-1-1.5-2.1-3-3.3-4.7c1,0,1.8,0,2.7,0
		c0.3,0,0.5,0.3,0.7,0.5c0.5,0.6,0.9,1.3,1.5,2.1c0.5-0.7,1-1.4,1.4-2c0.3-0.5,0.6-0.7,1.2-0.6c0.7,0.1,1.3,0,2.2,0
		c-1.1,1.7-2.2,3.1-3.3,4.7c1.2,1.7,2.4,3.5,3.7,5.4c-1,0-1.9,0-2.7,0c-0.3,0-0.5-0.3-0.7-0.5C39.7,93.7,39.1,92.8,38.5,91.8z"/>
	<path d="M344,91.6c0.7-2.2,1.4-4.3,2-6.5c0.9,0,1.8,0,2.8,0c-1.1,3.4-2.3,6.7-3.4,10c-1,0-2.1,0-3.1,0c-1.1-3.3-2.3-6.6-3.4-10
		c1,0,1.9,0,2.9,0c0.7,2.2,1.4,4.4,2.1,6.6C343.9,91.6,343.9,91.6,344,91.6z"/>
	<path d="M372,82c1.1,0,1.9,0,2.9,0c0,1,0,1.9,0,3c0.7,0,1.3,0,1.9,0c0,0.6,0,1.2,0,1.8c-0.6,0-1.2,0-1.8,0c0,0.4-0.1,0.7-0.1,1
		c0,1.3,0,2.6,0,3.9c0,1.1,0.2,1.3,1.3,1.3c0.2,0,0.4,0,0.6,0c0,0.7,0,1.4,0,2.1c-1,0.3-2,0.2-3,0c-0.9-0.2-1.6-0.8-1.7-1.8
		c-0.1-0.6-0.1-1.1-0.1-1.7c0-1.5,0-3.1,0-4.7c-0.6,0-1-0.1-1.6-0.1c0-0.6,0-1.1,0-1.8c0.5,0,1-0.1,1.6-0.1C372,83.9,372,83,372,82z
		"/>
	<path d="M168.1,86.9c-0.6,0-1.1-0.1-1.6-0.1c0-0.6,0-1.2,0-1.8c0.5,0,1-0.1,1.6-0.1c0-1,0-1.9,0-2.9c1,0,1.8,0,2.8,0
		c0,1,0,1.9,0,2.9c0.7,0,1.3,0.1,2,0.1c0,0.6,0,1.1,0,1.8c-0.7,0-1.3,0.1-2,0.1c0,1.8,0,3.5,0,5.2c0,0.6,0.3,0.8,0.9,0.9
		c0.2,0,0.4,0,0.5,0c0.1,0,0.3,0,0.5,0c0,0.7,0,1.3,0,2c-1.1,0.3-2.2,0.2-3.2,0c-1-0.3-1.5-0.9-1.5-2c0-1.7,0-3.3,0-5
		C168.1,87.7,168.1,87.3,168.1,86.9z"/>
	<path d="M315.4,122.6c-1.1,0-2.2,0-3.2,0c0-4.2,0-8.3,0-12.5c1.1,0,2.1,0,3.2,0C315.4,114.3,315.4,118.4,315.4,122.6z"/>
	<path d="M256.6,110.1c1.1,0,2.1,0,3.1,0c0.2,0.8,0.3,11.4,0,12.6c-1,0-2.1,0-3.2,0C256.6,118.4,256.6,114.3,256.6,110.1z"/>
	<path d="M116.7,110.1c1.1,0,2.1,0,3.2,0c0,4.2,0,8.3,0,12.6c-1,0.1-2.1,0.1-3.1,0C116.5,121.8,116.4,111.4,116.7,110.1z"/>
	<path d="M174,81.1c0.9,0,1.7,0,2.5,0c0.2,0.8,0.3,12.1,0.1,13.9c-0.8,0-1.7,0-2.6,0C173.9,94.3,173.8,82.8,174,81.1z"/>
	<path d="M207.4,95c-1,0-1.8,0-2.8,0c0-3.3,0-6.6,0-10.1c0.4,0,0.8,0,1.2,0c0.4,0,0.8,0,1.3,0c0,0.5,0.1,1,0.1,1.6
		c1-1.2,2.1-2,3.7-1.7c0,0.8,0,1.6,0,2.5c-0.4,0-0.7,0-1,0c-1.5,0-2.4,0.8-2.6,2.3c-0.1,1-0.1,2.1-0.1,3.2
		C207.4,93.5,207.4,94.2,207.4,95z"/>
	<path d="M244.8,85c0.9,0,1.8,0,2.7,0c0.1,3.3,0,6.7,0,10c-1,0-1.8,0-2.8,0C244.8,91.7,244.8,88.4,244.8,85z"/>
	<path d="M61.8,85c0.9,0,1.7,0,2.6,0c0,3.3,0,6.6,0,10c-0.8,0-1.7,0-2.6,0C61.8,91.7,61.8,88.4,61.8,85z"/>
	<path d="M56.9,87.1c0,0.7,0,1.3,0,1.9c-0.9,0.2-8.9,0.2-9.8,0c0-0.6,0-1.2,0-1.9C50.4,87.1,53.6,87.1,56.9,87.1z"/>
	<path d="M47.1,93.3c0-0.7,0-1.3,0-1.9c0.7-0.2,8.3-0.3,9.8-0.1c0,0.3,0.1,0.6,0.1,0.9c0,0.3,0,0.6,0,1.1
		C53.6,93.3,50.4,93.3,47.1,93.3z"/>
	<path d="M315.4,108.6c-1.1,0-2.1,0-3.2,0c0-1,0-1.9,0-2.9c1-0.2,2.1-0.1,3.2-0.1C315.4,106.6,315.4,107.5,315.4,108.6z"/>
	<path d="M259.8,108.6c-1.1,0-2.1,0-3.2,0c0-1,0-1.9,0-2.9c1-0.2,2.1-0.1,3.2-0.1C259.8,106.6,259.8,107.6,259.8,108.6z"/>
	<path d="M116.6,105.6c1.1,0,2.1,0,3.2,0c0,1,0,1.9,0,2.9c-1,0-2.1,0-3.2,0C116.6,107.6,116.6,106.7,116.6,105.6z"/>
	<path d="M247.5,81.2c0,0.7,0,1.4,0,2.2c-0.9,0-1.8,0-2.7,0c0-0.7,0-1.4,0-2.2C245.7,81.2,246.5,81.2,247.5,81.2z"/>
	<path d="M61.8,81.2c0.9,0,1.7,0,2.6,0c0,0.7,0,1.4,0,2.2c-0.9,0-1.7,0-2.6,0C61.8,82.6,61.8,81.9,61.8,81.2z"/>
	<path class="st1" d="M131,34.9c0.2-0.1,0.3-0.1,0.4-0.1c2.4,0,4.7-0.1,7.1,0.3c4.5,0.8,7.1,3.4,8.1,7.8c0.6,2.8,0.4,5.7-0.5,8.4
		c-1.3,3.8-4,5.9-8.2,6.2c-2.2,0.2-4.4,0-6.5,0c-0.1,0-0.2-0.1-0.4-0.1C131,49.9,131,42.4,131,34.9z"/>
	<path class="st1" d="M104.5,116.3c0.2-0.8,0.3-1.6,0.5-2.3c0.3-0.9,1.1-1.5,2.1-1.5c1.1-0.1,2,0.3,2.5,1.3c0.8,1.6,0.9,3.3,0.1,5
		c-0.5,1-1.3,1.4-2.4,1.4c-1.1,0-1.8-0.6-2.2-1.5C104.8,117.8,104.7,117,104.5,116.3z"/>
	<path class="st1" d="M313.6,92.5c0-2.9,0-5.8,0-8.7c1.2,0,2.4-0.2,3.6,0.1c1.2,0.3,1.9,1,2.3,2.1c0.4,1.3,0.5,2.7,0.1,4
		c-0.4,1.4-1.3,2.3-2.8,2.4C315.7,92.5,314.7,92.5,313.6,92.5z"/>
	<path class="st1" d="M58.6,116.6c0,0.6,0.1,1.3,0,1.9c-0.2,1.5-1.9,2.5-3.3,2.1c-0.6-0.2-1-0.5-1.1-1.1c-0.1-0.7,0-1.4,0.6-1.8
		c0.3-0.2,0.6-0.3,1-0.4C56.7,117.1,57.6,116.9,58.6,116.6z"/>
	<path class="st1" d="M284.1,115c-1.8,0-3.6,0-5.3,0c-0.1-1.4,0.8-2.4,2.2-2.6C282.7,112.2,283.8,113.1,284.1,115z"/>
	<path class="st1" d="M130.8,115c-1.7,0-3.5,0-5.2,0c-0.1-1.4,0.9-2.5,2.3-2.6C129.6,112.3,130.6,113.2,130.8,115z"/>
	<path class="st1" d="M165.2,115c0.2-1.7,1.2-2.6,2.8-2.6c1.5,0.1,2.4,1,2.5,2.6C168.7,115,167,115,165.2,115z"/>
	<path class="st1" d="M96.5,115.1c-1.7,0-3.3,0-4.9,0c-0.1,0-0.3-0.1-0.4-0.1c0.1-1.7,1.1-2.6,2.6-2.6
		C95.4,112.4,96.3,113.3,96.5,115.1z"/>
	<path class="st1" d="M191.7,116.4c0.2-0.7,0.3-1.5,0.5-2.2c0.4-1.2,1.4-1.8,2.7-1.8c1.2,0,2.2,0.6,2.6,1.8c0.6,1.5,0.5,3,0,4.4
		c-0.4,1.1-1.4,1.7-2.6,1.7c-1.2,0-2.2-0.6-2.6-1.7C192,117.9,191.9,117.1,191.7,116.4z"/>
	<path class="st1" d="M219,89.8c-0.1,1.5-0.8,2.6-2,2.8c-1,0.2-1.8-0.2-2.3-1.1c-0.5-1.1-0.6-2.3-0.1-3.5c0.4-0.9,1-1.3,2-1.3
		c1,0,1.7,0.5,2,1.4C218.8,88.7,218.8,89.3,219,89.8z"/>
	<path class="st1" d="M272.3,90c0.1-0.7,0.2-1.2,0.4-1.7c0.4-1.1,1.2-1.6,2.3-1.5c1,0,1.7,0.6,2.1,1.7c0.3,1,0.3,2.1,0,3.1
		c-0.3,0.9-0.8,1.5-1.9,1.6c-1.1,0.1-1.9-0.3-2.3-1.3C272.5,91.3,272.4,90.6,272.3,90z"/>
	<path class="st1" d="M140.9,90c-0.1,0.6-0.2,1.1-0.3,1.6c-0.3,1-0.9,1.5-1.9,1.6c-1.1,0.1-1.9-0.3-2.3-1.3c-0.6-1.2-0.6-2.5,0-3.8
		c0.4-0.9,1.1-1.3,2.1-1.3c1,0,1.7,0.5,2,1.4C140.8,88.8,140.8,89.4,140.9,90z"/>
	<path class="st1" d="M79.8,90c0.2-0.7,0.2-1.3,0.4-1.8c0.4-1,1.2-1.5,2.2-1.4c1,0,1.7,0.5,2,1.6c0.4,1.1,0.4,2.3,0,3.4
		c-0.3,0.8-0.9,1.3-1.8,1.4c-1,0.1-1.8-0.2-2.2-1.1C80.2,91.4,80,90.7,79.8,90z"/>
	<path class="st1" d="M107.6,89.9c-0.1,0.6-0.2,1.2-0.3,1.7c-0.3,1.1-1,1.7-2.2,1.7c-1.1,0-1.8-0.5-2.2-1.6
		c-0.4-1.1-0.3-2.3,0.1-3.4c0.3-0.9,1-1.3,1.9-1.4c1,0,1.7,0.4,2.1,1.3C107.3,88.7,107.5,89.3,107.6,89.9z"/>
	<path class="st1" d="M229.3,90.3c0,0.4,0,0.6,0,0.8c0,1.8-1.1,2.6-2.8,2.3c-0.5-0.1-0.9-0.3-1-0.9c-0.1-0.6,0-1.1,0.6-1.4
		c0.4-0.2,0.8-0.3,1.2-0.4c0.3-0.1,0.7-0.1,1-0.2C228.5,90.5,228.8,90.4,229.3,90.3z"/>
	<path class="st1" d="M265.8,88.9c-1.4,0-2.8,0-4.2,0c-0.1-1.2,0.7-2,1.9-2.1C264.9,86.7,265.7,87.4,265.8,88.9z"/>
	<path class="st1" d="M91.5,88.9c0.3-1.6,1.1-2.2,2.4-2.1c1.2,0.1,1.8,0.7,1.9,2.1c-0.7,0-1.4,0-2.2,0C93,88.9,92.3,88.9,91.5,88.9z
		"/>
	<path class="st1" d="M336,88.9c-1.4,0-2.8,0-4.2,0c-0.1-1.2,0.7-2,1.9-2.1C335.1,86.7,335.9,87.4,336,88.9z"/>
	<path class="st1" d="M351.6,88.9c0.2-1.5,1-2.1,2.3-2.1c1.2,0.1,1.8,0.7,1.9,2.1C354.4,88.9,353.1,88.9,351.6,88.9z"/>
	<path class="st1" d="M114,88.9c0.2-1.5,1-2.2,2.3-2.1c1.2,0.1,1.8,0.8,1.9,2.1C116.8,88.9,115.5,88.9,114,88.9z"/>
	<path class="st1" d="M147.7,88.9c0.1-1.3,0.8-2,2-2.1c1.3-0.1,2,0.5,2.4,2.1C150.6,89,149.2,88.9,147.7,88.9z"/>
	<path class="st1" d="M200.8,90c-0.1,0.5-0.1,1-0.3,1.5c-0.4,1.2-1.1,1.7-2.3,1.7c-1.1,0-1.8-0.6-2.2-1.8c-0.3-1-0.3-2.1,0.1-3.1
		c0.4-1,1.1-1.5,2.2-1.5c1,0,1.8,0.5,2.2,1.5C200.6,88.9,200.7,89.5,200.8,90z"/>
</g>
</svg>
